<svg width="48" height="48" viewBox="0 0 48 48" fill="none" xmlns="http://www.w3.org/2000/svg">
<rect width="48" height="48" rx="4" fill="#FEFFFF" fill-opacity="0.6"/>
<path d="M36.3088 34.1634L35.0528 25.1905C35.0439 25.1223 35.014 25.0602 34.9687 25.0154C34.9234 24.9706 34.8657 24.9462 34.8062 24.9466H26.6302C26.5706 24.9462 26.5129 24.9706 26.4676 25.0154C26.4223 25.0602 26.3925 25.1223 26.3835 25.1905L25.1275 34.1634C25.1248 34.1789 25.1248 34.1959 25.1248 34.2098C25.1248 34.3703 25.2368 34.5 25.3742 34.5H36.0622C36.0755 34.5 36.0888 34.5 36.1022 34.4969C36.1678 34.4844 36.2264 34.4423 36.2651 34.3797C36.3039 34.3172 36.3196 34.2394 36.3088 34.1634ZM21.6155 25.1905C21.6063 25.1225 21.5763 25.0605 21.5311 25.0158C21.4859 24.971 21.4283 24.9465 21.3688 24.9466H13.1928C13.1333 24.9465 13.0758 24.971 13.0306 25.0158C12.9853 25.0605 12.9554 25.1225 12.9462 25.1905L11.6902 34.1634C11.6875 34.1789 11.6875 34.1959 11.6875 34.2098C11.6875 34.3703 11.7995 34.5 11.9368 34.5H22.6248C22.6382 34.5 22.6515 34.5 22.6648 34.4969C22.6974 34.4909 22.7286 34.4775 22.7567 34.4575C22.7847 34.4374 22.809 34.4111 22.8283 34.3801C22.8475 34.3491 22.8612 34.314 22.8686 34.2768C22.876 34.2396 22.877 34.2011 22.8715 34.1634L21.6155 25.1905ZM18.6875 22.0519H29.3742C29.3875 22.0519 29.4022 22.0519 29.4142 22.0488C29.4466 22.0428 29.4777 22.0294 29.5056 22.0095C29.5336 21.9895 29.5579 21.9634 29.5771 21.9325C29.5963 21.9017 29.61 21.8668 29.6175 21.8297C29.625 21.7927 29.6262 21.7544 29.6208 21.7168L28.3648 12.7424C28.3553 12.6746 28.3253 12.613 28.2801 12.5686C28.2349 12.5242 28.1775 12.4998 28.1182 12.5H19.9435C19.8842 12.4998 19.8268 12.5242 19.7816 12.5686C19.7364 12.613 19.7063 12.6746 19.6968 12.7424L18.4395 21.7168C18.4368 21.7307 18.4368 21.7477 18.4368 21.7632C18.4368 21.9222 18.5488 22.0534 18.6875 22.0534V22.0519Z" fill="url(#paint0_linear_348_2335)"/>
<g filter="url(#filter0_bd_348_2335)">
<circle cx="32" cy="31" r="9" fill="url(#paint1_linear_348_2335)" fill-opacity="0.5" shape-rendering="crispEdges"/>
<circle cx="32" cy="31" r="8.8" stroke="url(#paint2_linear_348_2335)" stroke-width="0.4" shape-rendering="crispEdges"/>
</g>
<path d="M28.7305 35.9298H27.8105L27.5805 34.9398C27.8505 34.9698 28.1105 34.9898 28.3705 34.9898C28.6105 34.9898 28.7405 34.8698 28.7405 34.6298V32.5998C28.3605 32.7398 27.9705 32.8698 27.5805 32.9998L27.3105 31.9398C27.7905 31.8298 28.2605 31.6898 28.7405 31.5298V29.5198H27.5505V28.5098H28.7405V26.7998H29.7705V28.5098H30.7005V29.5198H29.7705V31.1298C30.1105 30.9698 30.4505 30.7998 30.7905 30.6198V31.6798C30.4505 31.8498 30.1105 32.0098 29.7705 32.1698V34.8898C29.7705 35.5798 29.4205 35.9298 28.7305 35.9298ZM33.1405 28.0698H31.9905V29.5398H33.1405V28.0698ZM31.9905 30.4998V31.9898H33.1405V30.4998H31.9905ZM33.1405 32.9398H31.9905V33.4298H31.0105V27.1098H36.3105V33.4298H35.3305V32.9398H34.1205V36.0298H33.1405V32.9398ZM34.1205 31.9898H35.3305V30.4998H34.1205V31.9898ZM35.3305 29.5398V28.0698H34.1205V29.5398H35.3305Z" fill="white"/>
<defs>
<filter id="filter0_bd_348_2335" x="19" y="18" width="26" height="26" filterUnits="userSpaceOnUse" color-interpolation-filters="sRGB">
<feFlood flood-opacity="0" result="BackgroundImageFix"/>
<feGaussianBlur in="BackgroundImageFix" stdDeviation="2"/>
<feComposite in2="SourceAlpha" operator="in" result="effect1_backgroundBlur_348_2335"/>
<feColorMatrix in="SourceAlpha" type="matrix" values="0 0 0 0 0 0 0 0 0 0 0 0 0 0 0 0 0 0 127 0" result="hardAlpha"/>
<feOffset dx="1"/>
<feGaussianBlur stdDeviation="1"/>
<feComposite in2="hardAlpha" operator="out"/>
<feColorMatrix type="matrix" values="0 0 0 0 0.0483993 0 0 0 0 0.398594 0 0 0 0 0.945241 0 0 0 0.3 0"/>
<feBlend mode="normal" in2="effect1_backgroundBlur_348_2335" result="effect2_dropShadow_348_2335"/>
<feBlend mode="normal" in="SourceGraphic" in2="effect2_dropShadow_348_2335" result="shape"/>
</filter>
<linearGradient id="paint0_linear_348_2335" x1="23.9998" y1="12.5" x2="23.9998" y2="34.5" gradientUnits="userSpaceOnUse">
<stop stop-color="#BCD6FF"/>
<stop offset="1" stop-color="#1670FF"/>
</linearGradient>
<linearGradient id="paint1_linear_348_2335" x1="32" y1="22" x2="37.0294" y2="39.2059" gradientUnits="userSpaceOnUse">
<stop stop-color="#E2ECFF"/>
<stop offset="0.445" stop-color="white"/>
<stop offset="1" stop-color="#C2E5FF" stop-opacity="0.5"/>
</linearGradient>
<linearGradient id="paint2_linear_348_2335" x1="40.4194" y1="30.7097" x2="23.871" y2="30.4194" gradientUnits="userSpaceOnUse">
<stop stop-color="white" stop-opacity="0.5"/>
<stop offset="1" stop-color="white"/>
</linearGradient>
</defs>
</svg>
