<svg width="62" height="54" viewBox="0 0 62 54" fill="none" xmlns="http://www.w3.org/2000/svg">
  <g filter="url(#filter0_d_348_2280)">
    <rect x="23" y="8.19604" width="35" height="39.1075" rx="4" fill="url(#paint0_linear_348_2280)"/>
    <g filter="url(#filter1_bd_348_2280)">
      <path d="M32.964 31.6518C31.832 31.094 30.408 30.8151 28.992 30.8151H20.764C13.676 30.8111 8 36.6643 8 43.908V44.7448C8 47.5299 13.676 47.8088 20.764 47.8088H31.26C29.272 45.8565 28.14 43.3502 28.14 40.5651C28.428 36.6643 30.128 33.6002 32.964 31.6518ZM25.024 29.4205C30.412 29.4205 34.952 24.9659 34.952 19.6705C34.948 14.1002 30.412 9.92053 25.024 9.92053C19.632 9.92053 15.096 14.3752 15.096 19.6666C15.092 24.9619 19.632 29.4205 25.024 29.4205ZM39.208 31.0901C34.388 31.0901 30.416 34.9908 30.416 40.0033C30.416 45.0158 34.388 48.9205 39.208 48.9205C44.028 48.9205 48 45.0197 48 40.0033C48 34.9869 44.028 31.0901 39.208 31.0901Z" fill="url(#paint1_linear_348_2280)" fill-opacity="0.5" shape-rendering="crispEdges"/>
      <path d="M20.7639 31.0151H20.764H28.992C30.2568 31.0151 31.5215 31.2417 32.5661 31.689C29.8461 33.6821 28.2228 36.7274 27.9405 40.5503L27.94 40.5577V40.5651C27.94 43.247 28.9693 45.6742 30.7848 47.6088H20.764C17.2173 47.6088 14.0441 47.5386 11.7597 47.1244C10.6162 46.9171 9.71621 46.627 9.10661 46.2308C8.50573 45.8403 8.2 45.3574 8.2 44.7448V43.908C8.2 36.7695 13.7916 31.0112 20.7639 31.0151ZM15.296 19.6668V19.6666C15.296 14.4891 19.739 10.1205 25.024 10.1205C30.3086 10.1205 34.7481 14.2177 34.752 19.6707C34.7519 24.852 30.305 29.2205 25.024 29.2205C19.739 29.2205 15.2921 24.8481 15.296 19.6668ZM30.616 40.0033C30.616 35.1006 34.4992 31.2901 39.208 31.2901C43.9169 31.2901 47.8 35.0967 47.8 40.0033C47.8 44.9101 43.9167 48.7205 39.208 48.7205C34.4993 48.7205 30.616 44.9062 30.616 40.0033Z" stroke="url(#paint2_linear_348_2280)" stroke-width="0.4" shape-rendering="crispEdges"/>
    </g>
    <rect width="16" height="2.79339" rx="1.3967" transform="matrix(-1 0 0 1 52 13.7828)" fill="white"/>
    <rect width="11" height="2.79339" rx="1.3967" transform="matrix(-1 0 0 1 52 20.3008)" fill="white"/>
    <rect width="7" height="2.79339" rx="1.3967" transform="matrix(-1 0 0 1 52 26.8187)" fill="white"/>
  </g>
  <defs>
    <filter id="filter0_d_348_2280" x="0" y="0.196045" width="62" height="52.7245" filterUnits="userSpaceOnUse" color-interpolation-filters="sRGB">
      <feFlood flood-opacity="0" result="BackgroundImageFix"/>
      <feColorMatrix in="SourceAlpha" type="matrix" values="0 0 0 0 0 0 0 0 0 0 0 0 0 0 0 0 0 0 127 0" result="hardAlpha"/>
      <feOffset dx="-2" dy="-2"/>
      <feGaussianBlur stdDeviation="3"/>
      <feComposite in2="hardAlpha" operator="out"/>
      <feColorMatrix type="matrix" values="0 0 0 0 1 0 0 0 0 0.364706 0 0 0 0 0.364706 0 0 0 0.12 0"/>
      <feBlend mode="normal" in2="BackgroundImageFix" result="effect1_dropShadow_348_2280"/>
      <feBlend mode="normal" in="SourceGraphic" in2="effect1_dropShadow_348_2280" result="shape"/>
    </filter>
    <filter id="filter1_bd_348_2280" x="4" y="5.92053" width="52" height="47" filterUnits="userSpaceOnUse" color-interpolation-filters="sRGB">
      <feFlood flood-opacity="0" result="BackgroundImageFix"/>
      <feGaussianBlur in="BackgroundImageFix" stdDeviation="2"/>
      <feComposite in2="SourceAlpha" operator="in" result="effect1_backgroundBlur_348_2280"/>
      <feColorMatrix in="SourceAlpha" type="matrix" values="0 0 0 0 0 0 0 0 0 0 0 0 0 0 0 0 0 0 127 0" result="hardAlpha"/>
      <feOffset dx="4"/>
      <feGaussianBlur stdDeviation="2"/>
      <feComposite in2="hardAlpha" operator="out"/>
      <feColorMatrix type="matrix" values="0 0 0 0 0.92726 0 0 0 0 0.208632 0 0 0 0 0.208632 0 0 0 0.3 0"/>
      <feBlend mode="normal" in2="effect1_backgroundBlur_348_2280" result="effect2_dropShadow_348_2280"/>
      <feBlend mode="normal" in="SourceGraphic" in2="effect2_dropShadow_348_2280" result="shape"/>
    </filter>
    <linearGradient id="paint0_linear_348_2280" x1="40.5" y1="8.19604" x2="40.5" y2="47.3036" gradientUnits="userSpaceOnUse">
      <stop stop-color="#FFD4D3"/>
      <stop offset="1" stop-color="#FF3D3D"/>
    </linearGradient>
    <linearGradient id="paint1_linear_348_2280" x1="28" y1="9.92053" x2="38.6661" y2="47.3454" gradientUnits="userSpaceOnUse">
      <stop stop-color="#E2ECFF"/>
      <stop offset="0.445" stop-color="white"/>
      <stop offset="1" stop-color="#C2E5FF" stop-opacity="0.5"/>
    </linearGradient>
    <linearGradient id="paint2_linear_348_2280" x1="46.7097" y1="28.7915" x2="9.93607" y2="28.1298" gradientUnits="userSpaceOnUse">
      <stop stop-color="white" stop-opacity="0.5"/>
      <stop offset="1" stop-color="white"/>
    </linearGradient>
  </defs>
</svg>