<svg xmlns="http://www.w3.org/2000/svg" width="1172" height="953" viewBox="0 0 1172 953" fill="none">
  <g filter="url(#filter0_b_4_1092)">
    <path d="M0 8C0 3.58172 3.58172 0 8 0H1164C1168.42 0 1172 3.58172 1172 8V945C1172 949.418 1168.42 953 1164 953H7.99998C3.5817 953 0 949.418 0 945V8Z" fill="url(#paint0_linear_4_1092)"/>
    <path d="M0.5 8C0.5 3.85786 3.85786 0.5 8 0.5H1164C1168.14 0.5 1171.5 3.85786 1171.5 8V945C1171.5 949.142 1168.14 952.5 1164 952.5H7.99998C3.85785 952.5 0.5 949.142 0.5 945V8Z" stroke="url(#paint1_linear_4_1092)"/>
  </g>
  <defs>
    <filter id="filter0_b_4_1092" x="-4" y="-4" width="1180" height="961" filterUnits="userSpaceOnUse" color-interpolation-filters="sRGB">
      <feFlood flood-opacity="0" result="BackgroundImageFix"/>
      <feGaussianBlur in="BackgroundImageFix" stdDeviation="2"/>
      <feComposite in2="SourceAlpha" operator="in" result="effect1_backgroundBlur_4_1092"/>
      <feBlend mode="normal" in="SourceGraphic" in2="effect1_backgroundBlur_4_1092" result="shape"/>
    </filter>
    <linearGradient id="paint0_linear_4_1092" x1="570" y1="21" x2="574.881" y2="953.058" gradientUnits="userSpaceOnUse">
      <stop stop-color="#B8D2FF" stop-opacity="0.2"/>
      <stop offset="0.111271" stop-color="#F4FAFF"/>
      <stop offset="0.364761" stop-color="white"/>
    </linearGradient>
    <linearGradient id="paint1_linear_4_1092" x1="586" y1="0" x2="586" y2="953" gradientUnits="userSpaceOnUse">
      <stop stop-color="white"/>
      <stop offset="1" stop-color="white" stop-opacity="0"/>
    </linearGradient>
  </defs>
</svg>