<svg width="10" height="12" viewBox="0 0 10 12" fill="none" xmlns="http://www.w3.org/2000/svg">
<path d="M9.49992 10.5C9.63252 10.5 9.75968 10.5527 9.85343 10.6465C9.94718 10.7402 9.99985 10.8674 9.99985 11C9.99985 11.1326 9.94718 11.2598 9.85343 11.3535C9.75968 11.4473 9.63252 11.5 9.49992 11.5H0.499923C0.367328 11.5 0.240171 11.4473 0.14642 11.3535C0.0526679 11.2598 0 11.1326 0 11C0 10.8674 0.0526679 10.7402 0.14642 10.6465C0.240171 10.5527 0.367328 10.5 0.499923 10.5H9.49992ZM4.99992 2C6.1934 2 7.33799 2.47411 8.1819 3.31802C9.02582 4.16193 9.49992 5.30653 9.49992 6.5V9.5C9.49992 9.63261 9.44725 9.75978 9.35348 9.85355C9.25971 9.94732 9.13253 10 8.99992 10H0.999923C0.867315 10 0.740138 9.94732 0.64637 9.85355C0.552602 9.75978 0.499923 9.63261 0.499923 9.5V6.5C0.499923 5.30653 0.974029 4.16193 1.81794 3.31802C2.66186 2.47411 3.80645 2 4.99992 2ZM4.99992 3C4.07167 3 3.18143 3.36875 2.52505 4.02513C1.86867 4.6815 1.49992 5.57174 1.49992 6.5V9H8.49992V6.5C8.49994 5.59251 8.14748 4.72049 7.51689 4.06789C6.8863 3.41528 6.02688 3.03311 5.11992 3.002L4.99992 3ZM1.56142 1.0455L2.20492 1.8115C2.22606 1.83667 2.24203 1.86576 2.25191 1.8971C2.26179 1.92845 2.2654 1.96144 2.26252 1.99418C2.25964 2.02692 2.25033 2.05877 2.23513 2.08791C2.21993 2.11705 2.19913 2.14291 2.17392 2.164L1.79092 2.485C1.74018 2.52759 1.67461 2.5483 1.60861 2.54258C1.54261 2.53686 1.48158 2.50518 1.43892 2.4545L0.794924 1.6885C0.773786 1.66333 0.75782 1.63424 0.747937 1.6029C0.738054 1.57155 0.734449 1.53856 0.737329 1.50582C0.740208 1.47308 0.749515 1.44123 0.764717 1.41209C0.779919 1.38295 0.800718 1.35709 0.825923 1.336L1.20892 1.015C1.25966 0.972409 1.32523 0.951698 1.39123 0.957417C1.45723 0.963135 1.51826 0.994816 1.56092 1.0455H1.56142ZM8.79042 1.015L9.17342 1.336C9.19863 1.35709 9.21943 1.38295 9.23463 1.41209C9.24983 1.44123 9.25914 1.47308 9.26202 1.50582C9.2649 1.53856 9.26129 1.57155 9.25141 1.6029C9.24153 1.63424 9.22556 1.66333 9.20442 1.6885L8.56142 2.4545C8.51877 2.50518 8.45773 2.53686 8.39173 2.54258C8.32574 2.5483 8.26016 2.52759 8.20942 2.485L7.82642 2.164C7.80122 2.14291 7.78042 2.11705 7.76522 2.08791C7.75002 2.05877 7.74071 2.02692 7.73783 1.99418C7.73495 1.96144 7.73855 1.92845 7.74844 1.8971C7.75832 1.86576 7.77429 1.83667 7.79542 1.8115L8.43842 1.0455C8.48108 0.994816 8.54211 0.963135 8.60811 0.957417C8.67411 0.951698 8.73968 0.972409 8.79042 1.015ZM5.24992 0C5.28275 -1.53893e-09 5.31526 0.00646644 5.34559 0.0190301C5.37593 0.0315938 5.40349 0.0500086 5.4267 0.0732233C5.44991 0.0964379 5.46833 0.123998 5.48089 0.154329C5.49346 0.184661 5.49992 0.21717 5.49992 0.25V1.25C5.49992 1.28283 5.49346 1.31534 5.48089 1.34567C5.46833 1.376 5.44991 1.40356 5.4267 1.42678C5.40349 1.44999 5.37593 1.46841 5.34559 1.48097C5.31526 1.49353 5.28275 1.5 5.24992 1.5H4.74992C4.71709 1.5 4.68458 1.49353 4.65425 1.48097C4.62392 1.46841 4.59636 1.44999 4.57315 1.42678C4.54993 1.40356 4.53152 1.376 4.51895 1.34567C4.50639 1.31534 4.49992 1.28283 4.49992 1.25V0.25C4.49992 0.21717 4.50639 0.184661 4.51895 0.154329C4.53152 0.123998 4.54993 0.0964379 4.57315 0.0732233C4.59636 0.0500086 4.62392 0.0315938 4.65425 0.0190301C4.68458 0.00646644 4.71709 -1.53893e-09 4.74992 0L5.24992 0Z" fill="#FF3C3C"/>
</svg>
